#!OML:ASF F:\VICON\USERDATA\INSTALL\rory3\rory3.ASF
:FULLY-SPECIFIED
:DEGREES
411
root 0.29415 15.0629 -26.6969 -168.432 -9.23739 -166.017
lowerback -15.7206 11.2324 -4.33383
upperback -5.71627 15.0771 -2.55791
thorax 2.06926 7.30426 2.14733
lowerneck -20.183 -4.78271 -1.7855
upperneck 39.6049 -13.8371 8.00316
head 19.5884 -5.60551 0.715401
rclavicle -1.36366e-013 -1.59028e-014
rhumerus -37.2188 -19.9018 -6.10554
rradius 17.0617
rwrist 15.2862
rhand -10.1312 0.497549
rfingers 7.12502
rthumb 15.8573 -28.8731
lclavicle -1.36366e-013 -1.59028e-014
lhumerus -75.311 -2.41596 -20.0311
lradius 11.098
lwrist -42.2579
lhand -2.16134 32.9012
lfingers 7.12502
lthumb 23.5186 61.4835
rfemur -12.8603 -1.84009 32.2431
rtibia 59.779
rfoot -0.838434 3.68811
rtoes -25.757
lfemur -62.7162 10.3147 -23.3734
ltibia 58.2524
lfoot -22.6224 22.8067
ltoes 18.5738
412
root 0.220154 15.053 -26.8752 -169.265 -10.8468 -165.627
lowerback -15.8064 10.9149 -4.09348
upperback -5.46005 14.6646 -2.41325
thorax 2.43237 7.09651 2.16917
lowerneck -20.1464 -5.00709 -1.58256
upperneck 39.7363 -14.1532 7.67024
head 19.6189 -5.73802 0.449348
rclavicle -7.15625e-014 2.8625e-014
rhumerus -38.0132 -14.5446 -10.4566
rradius 18.3207
rwrist 6.74678
rhand -9.70424 -0.21481
rfingers 7.12502
rthumb 16.2684 -29.5523
lclavicle -7.15625e-014 2.8625e-014
lhumerus -75.7334 -0.762033 -22.6131
lradius 11.1972
lwrist -45.1498
lhand -3.12745 32.0543
lfingers 7.12502
lthumb 22.5916 60.7523
rfemur -15.4513 -2.62206 32.2208
rtibia 63.9336
rfoot 0.618243 4.05473
rtoes -25.3369
lfemur -61.3646 8.16758 -22.4217
ltibia 58.8618
lfoot -24.1085 23.3562
ltoes 20.0379
413
root 0.163489 14.9855 -27.0211 -170.119 -12.551 -165.239
lowerback -15.6031 10.4133 -4.0393
upperback -5.06146 14.0355 -1.95358
thorax 2.68054 6.798 2.51793
lowerneck -19.7264 -5.38752 -0.898862
upperneck 39.4666 -14.3528 6.54865
head 19.1002 -5.87271 -0.207617
rclavicle 8.13029e-014 1.59028e-014
rhumerus -38.7117 -11.2001 -13.9635
rradius 19.7755
rwrist -0.0368862
rhand -9.29905 -0.717046
rfingers 7.12502
rthumb 16.6586 -30.0222
lclavicle 8.13029e-014 1.59028e-014
lhumerus -76.7424 1.06665 -24.6476
lradius 10.9721
lwrist -48.2299
lhand -4.96168 31.4486
lfingers 7.12502
lthumb 20.8302 60.3505
rfemur -18.2543 -3.40301 32.1958
rtibia 68.1559
rfoot -0.0138451 3.10702
rtoes -23.6228
lfemur -61.1335 5.74314 -21.4053
ltibia 60.4441
lfoot -24.7938 24.4489
ltoes 20.2535
414
root 0.114102 14.903 -27.1646 -170.969 -14.1754 -164.818
lowerback -16.9017 9.48367 -3.97942
upperback -3.38559 13.0012 -0.982078
thorax 4.9983 6.22111 3.74507
lowerneck -21.0987 -5.40412 -1.66182
upperneck 39.1731 -13.5843 6.17018
head 19.2441 -5.6048 -0.114178
rclavicle -8.38871e-014 4.77083e-014
rhumerus -37.1301 -11.8369 -16.4954
rradius 20.2879
rwrist -3.87872
rhand -8.76565 -0.969999
rfingers 7.12502
rthumb 17.172 -30.2312
lclavicle -8.38871e-014 4.77083e-014
lhumerus -80.285 4.37261 -27.5796
lradius 10.6757
lwrist -51.522
lhand -5.87133 29.5213
lfingers 7.12502
lthumb 19.956 58.5166
rfemur -21.7274 -3.94295 32.1504
rtibia 72.2486
rfoot -1.93598 1.4982
rtoes -29.7023
lfemur -61.5357 4.61892 -21.1341
ltibia 62.6593
lfoot -23.7551 25.8874
ltoes 16.287
415
root 0.080547 14.7812 -27.2897 -171.726 -15.7455 -164.379
lowerback -13.7904 9.57193 -3.03174
upperback -5.40191 12.7129 -1.78289
thorax 1.62721 6.18448 1.63849
lowerneck -18.8535 -5.34598 -2.03736
upperneck 39.9302 -14.5434 7.43278
head 19.419 -6.0859 0.368583
rclavicle -3.76697e-014 -7.15625e-014
rhumerus -40.4545 -9.70686 -19.536
rradius 20.6313
rwrist -6.80921
rhand -8.65698 -0.788701
rfingers 7.12502
rthumb 17.2766 -30.0408
lclavicle -3.76697e-014 -7.15625e-014
lhumerus -81.1151 -8.42714 17.606
lradius 12.0329
lwrist -3.57801
lhand -9.51072 34.5089
lfingers 7.12502
lthumb 16.4548 63.831
rfemur -25.6641 -3.97813 32.1094
rtibia 76.2308
rfoot -2.54606 -1.20925
rtoes -21.5447
lfemur -61.838 2.9077 -20.4028
ltibia 65.0057
lfoot -25.1392 25.6613
ltoes 17.0556
416
root 0.0558033 14.655 -27.399 -172.42 -17.4143 -163.945
lowerback -15.246 8.3733 -3.12744
upperback -3.72172 11.316 -0.775678
thorax 4.0088 5.45245 2.92217
lowerneck -19.5237 -5.1693 -1.62015
upperneck 39.382 -13.7195 6.62373
head 19.0208 -5.73306 0.10416
rclavicle 7.93151e-014 2.06736e-014
rhumerus -37.715 -11.9891 -22.1574
rradius 19.9359
rwrist -8.26806
rhand -8.55423 -0.563293
rfingers 7.12502
rthumb 17.3755 -29.8067
lclavicle 7.93151e-014 2.06736e-014
lhumerus -83.4875 6.52337 -25.2627
lradius 11.4909
lwrist -47.2379
lhand -8.10385 28.0329
lfingers 7.12502
lthumb 17.8089 57.2374
rfemur -29.9621 -3.90779 31.8847
rtibia 79.7367
rfoot -3.99002 -4.3143
rtoes -24.6813
lfemur -62.1626 0.992987 -19.5876
ltibia 67.1481
lfoot -26.3675 24.7906
ltoes 17.1108
417
root 0.0328891 14.5742 -27.5072 -173.221 -19.1886 -163.509
lowerback -14.921 7.66268 -2.65432
upperback -3.26629 10.3418 -0.599886
thorax 4.42877 4.97544 2.69409
lowerneck -19.7014 -4.98704 -1.33431
upperneck 39.5819 -13.5664 6.493
head 19.1378 -5.64198 0.0175038
rclavicle 2.04748e-014 -2.54444e-014
rhumerus -37.1284 -13.6466 -25.0377
rradius 19.4004
rwrist -9.18005
rhand -8.58178 -0.303152
rfingers 7.12502
rthumb 17.349 -29.5489
lclavicle 2.04748e-014 -2.54444e-014
lhumerus -84.8991 8.2333 -18.5003
lradius 11.9026
lwrist -39.7505
lhand -8.49169 28.2515
lfingers 7.12502
lthumb 17.4357 57.4896
rfemur -34.1776 -3.44043 31.4891
rtibia 82.382
rfoot -5.70285 -7.98464
rtoes -25.2252
lfemur -62.039 -0.496742 -18.9557
ltibia 68.7831
lfoot -27.4102 23.542
ltoes 17.7558
418
root 0.0153045 14.5345 -27.6207 -173.954 -20.5118 -163
lowerback -12.9886 7.41937 -1.87536
upperback -4.03628 9.83941 -0.871201
thorax 2.78747 4.7759 1.58957
lowerneck -19.1994 -4.78179 -1.26457
upperneck 40.4485 -13.8125 6.70475
head 19.5975 -5.76826 0.0381563
rclavicle 4.67144e-014 4.92986e-014
rhumerus -37.9203 -13.01 -28.7127
rradius 19.1312
rwrist -11.2895
rhand -8.84085 0.174182
rfingers 7.12502
rthumb 17.0996 -29.0933
lclavicle 4.67144e-014 4.92986e-014
lhumerus -83.9792 8.56233 -8.03821
lradius 12.8093
lwrist -29.5082
lhand -11.5261 27.4538
lfingers 7.12502
lthumb 14.5137 56.9262
rfemur -38.5802 -2.38793 30.7701
rtibia 84.1498
rfoot -7.46862 -11.9456
rtoes -20.018
lfemur -62.065 -0.947717 -18.573
ltibia 70.0938
lfoot -26.4898 23.7932
ltoes 14.3099
419
root 0.00306204 14.5294 -27.7454 -175.052 -21.8398 -162.464
lowerback -12.2972 6.82324 -1.37133
upperback -3.45625 9.03736 -0.68553
thorax 3.09758 4.39475 1.35822
lowerneck -19.4454 -4.67034 -1.28678
upperneck 40.5872 -13.9162 7.07941
head 19.8307 -5.75964 0.178132
rclavicle -1.44516e-013 -7.95139e-014
rhumerus -36.5379 -12.6782 -33.1783
rradius 18.8197
rwrist -13.9852
rhand -9.23603 0.908561
rfingers 7.12502
rthumb 16.7192 -28.3915
lclavicle -1.44516e-013 -7.95139e-014
lhumerus -84.1402 11.4472 -0.668629
lradius 14.0957
lwrist -23.7461
lhand -8.67628 26.4669
lfingers 7.12502
lthumb 17.258 55.7206
rfemur -42.4118 -1.27399 29.6995
rtibia 84.8993
rfoot -11.6719 -15.8017
rtoes -14.0686
lfemur -61.424 -1.03531 -18.2064
ltibia 71.0732
lfoot -26.035 22.6206
ltoes 12.2121
